<?xml version="1.0" encoding="utf-8"?>
<!-- Generator: Adobe Illustrator 25.4.2, SVG Export Plug-In . SVG Version: 6.00 Build 0)  -->
<svg version="1.1" id="Layer_1" xmlns="http://www.w3.org/2000/svg" xmlns:xlink="http://www.w3.org/1999/xlink" x="0px" y="0px"
	 viewBox="0 0 174.4 70.7" style="enable-background:new 0 0 174.4 70.7;" xml:space="preserve">
<style type="text/css">
	.st0{fill:#A21C43;}
	.st1{fill:#BE8B2D;}
	.st2{fill:#EF402A;}
	.st3{fill:#212121;}
	.st4{fill:#DD1768;}
	.st5{fill:#4C9F46;}
	.st6{fill:#1E69C0;}
</style>
<path class="st0" d="M168.8,20.1c0,7.9-6.4,14.4-14.3,14.4c0,0,0,0,0,0l-0.4,1.4v3.5l0.4,0.8c11,0,20-9,20-20l-0.7-0.4h-3.9
	L168.8,20.1L168.8,20.1z"/>
<path class="st1" d="M154.5,5.8c-7.9,0-14.4,6.4-14.4,14.3c0,0,0,0,0,0l-1,0.4h-3.5l-1.2-0.4c0-11,9-20,20-20l0.4,1.5v3L154.5,5.8z"
	/>
<path class="st2" d="M130.5,57.8c0-7.1-5.8-12.9-12.9-13l-0.4,1v3.8l0.4,0.8c1,0,1.9,0.2,2.8,0.6c1.3,0.6,2.4,1.5,3.2,2.7
	c0.8,1.2,1.3,2.6,1.2,4.1l1.2,0.6h3.6L130.5,57.8z"/>
<path class="st3" d="M71.6,22.9h8V32c-2.4,1.6-5.1,2.5-8,2.5l0,0c-1.9,0-3.8-0.4-5.6-1.1c-5.3-2.3-8.8-7.5-8.8-13.3
	c0-4.8,2.3-9.3,6.3-12c5.2-3.5,12.1-3.2,17,0.8c0.4,0.3,0.8,0.6,1.1,1l4-4l0,0c-0.5-0.5-1-0.9-1.5-1.3C80.6,1.6,76.2,0,71.6,0l0,0
	c-11.1,0.1-20,9.1-20,20.2c0,6.6,3.3,12.8,8.8,16.5c3.3,2.2,7.2,3.4,11.2,3.5l0,0c4.6,0,9-1.6,12.6-4.5l1-0.8V17.2H71.6V22.9z"/>
<path class="st3" d="M25.1,28.1c0,6.6,5.4,12,12,12s12-5.4,12-12c0-1.8-0.3-3.5-1-5.2c-0.5-1.2-1.3-2.4-2.3-3.3
	c-0.8-0.7-1.7-1.3-2.6-1.8c-1.5-0.7-3.1-1.3-4.7-1.7c-1.1-0.3-2.2-0.6-3-0.9c-0.6-0.2-1.2-0.4-1.7-0.7c-0.3-0.2-0.6-0.4-0.8-0.6
	c-0.3-0.3-0.6-0.7-0.8-1.1c-0.2-0.6-0.3-1.3-0.3-2c0-0.7,0.1-1.4,0.4-2c0.4-0.9,1.1-1.7,1.9-2.3c1.5-1,3.4-1.2,5-0.5
	C40.2,6.5,41,7.1,41.6,8c0.6,0.9,0.9,1.9,0.9,2.9h5.6c0-6-4.9-10.9-10.9-10.9c-6,0-10.9,4.9-10.9,10.9c0,0.9,0.1,1.7,0.3,2.5
	c0.2,0.7,0.4,1.4,0.7,2.1c0.6,1.2,1.4,2.2,2.4,3c0.8,0.6,1.7,1.1,2.6,1.5c1.5,0.6,3,1.1,4.5,1.5c1,0.3,2,0.6,2.9,0.9
	c0.6,0.2,1.1,0.5,1.7,0.8c0.3,0.2,0.6,0.4,0.9,0.7c0.4,0.4,0.7,0.9,0.9,1.5c0.3,0.8,0.4,1.7,0.4,2.6c0,3.5-2.9,6.4-6.4,6.4
	c0,0,0,0,0,0c-0.9,0-1.7-0.2-2.5-0.5c-1.1-0.5-2.1-1.3-2.8-2.3c-0.7-1.1-1.1-2.3-1.1-3.6L25.1,28.1z"/>
<polygon class="st3" points="22.2,6.4 22.2,0.8 0,0.8 0,39.4 22.2,39.4 22.2,33.8 5.6,33.8 5.6,22.9 17,22.9 17,17.2 5.6,17.2 
	5.6,6.4 "/>
<path class="st3" d="M154.5,5.8c3.8,0,7.5,1.5,10.2,4.2c2.7,2.7,4.2,6.3,4.2,10.1h5.6c0-11-9-20-20-20L154.5,5.8L154.5,5.8z"/>
<path class="st3" d="M140.1,20.1c0,1.9,0.4,3.8,1.1,5.6c2.2,5.3,7.5,8.8,13.2,8.8v5.6c-11,0-20-9-20-20L140.1,20.1z"/>
<path class="st4" d="M110.5,5.8c-7.9,0-14.4,6.4-14.4,14.3c0,0,0,0,0,0l-1.6,1.2l-2.7-0.4l-1.3-0.8c0-5.3,2.1-10.4,5.9-14.1
	c3.7-3.8,8.8-5.9,14.1-5.9l0.6,1.2v3.2C111.1,4.5,110.5,5.8,110.5,5.8z"/>
<path class="st5" d="M124.9,20.1c0,4.8-2.4,9.2-6.3,11.9c-2.4,1.6-5.1,2.5-8,2.5l-0.7,1.8v2.2l0.7,1.6c11,0,20-9,20-20l-1-1.1h-2.8
	L124.9,20.1L124.9,20.1z"/>
<path class="st3" d="M129,12.3c-1-2.5-2.6-4.7-4.5-6.6h6.1V0.1h-20v5.6l0,0c7.9,0,14.3,6.4,14.3,14.4h5.6
	C130.6,17.4,130,14.8,129,12.3z"/>
<path class="st6" d="M90.6,57.8c0,4.3,2.1,8.3,5.7,10.7c2.1,1.4,4.7,2.2,7.2,2.2l0.4-1.3v-2.5l-0.4-1.8c-4,0-7.3-3.3-7.3-7.3
	l-0.9-0.4h-3.3L90.6,57.8z"/>
<path class="st3" d="M109.8,50.5h7.8v-5.6h-15.5c-0.8,0-1.6-0.2-2.3-0.5c-1.1-0.5-2-1.2-2.6-2.2c-0.7-1-1-2.1-1-3.3
	c0-1.4,0.5-2.7,1.4-3.8c0.6,0.5,1.2,1,2,1.5c1.5,1,3.1,1.8,4.8,2.4c2,0.7,4.1,1.1,6.2,1.1v-5.6c-1.6,0-3.2-0.3-4.6-0.8
	c-1.8-0.7-3.5-1.7-5-3c-0.5-0.4-1-0.9-1.4-1.4c-0.2-0.2-0.3-0.3-0.4-0.4l-0.1-0.1l0,0c-0.7-0.9-1.3-1.9-1.8-3
	c-0.7-1.6-1.1-3.3-1.1-5.1v-0.4L90.6,20c0,0.2,0,0.4,0,0.6c0,2.5,0.5,5,1.6,7.3c0.4,1.1,1,2.1,1.6,3.1c-0.9,0.9-1.6,1.9-2.1,3
	c-2.3,4.9-0.9,10.7,3.3,14c-0.8,0.7-1.6,1.6-2.2,2.5c-1.4,2.1-2.2,4.7-2.2,7.2h5.6c0-1,0.2-1.9,0.6-2.8c0.6-1.3,1.5-2.4,2.7-3.2
	c1.2-0.8,2.6-1.3,4.1-1.2L109.8,50.5z"/>
<path class="st3" d="M124.9,57.8L124.9,57.8c0,4-3.3,7.3-7.3,7.3h-14.1v5.6h14.1c7.1,0,12.9-5.8,12.9-12.9c0,0,0,0,0,0L124.9,57.8z"
	/>
</svg>
