<?xml version="1.0" encoding="utf-8"?>
<!-- Generator: Adobe Illustrator 25.4.2, SVG Export Plug-In . SVG Version: 6.00 Build 0)  -->
<svg version="1.1" id="Layer_1" xmlns="http://www.w3.org/2000/svg" xmlns:xlink="http://www.w3.org/1999/xlink" x="0px" y="0px"
	 viewBox="0 0 350 350" style="enable-background:new 0 0 350 350;" xml:space="preserve">
<style type="text/css">
	.st0{clip-path:url(#SVGID_00000093879286856230432880000008309471004985931962_);}
	.st1{fill:#1E69C0;}
	.st2{fill:#FF3A20;}
	.st3{fill:#212121;}
</style>
<g>
	<defs>
		<rect id="SVGID_1_" width="350" height="350"/>
	</defs>
	<clipPath id="SVGID_00000174569877876970573080000014340826290771831723_">
		<use xlink:href="#SVGID_1_"  style="overflow:visible;"/>
	</clipPath>
	<g style="clip-path:url(#SVGID_00000174569877876970573080000014340826290771831723_);">
		<path class="st1" d="M175,300.7c-69.4,0-125.7-56.3-125.8-125.7c0,0,0,0,0,0l-12-3.3H6.8L0,175c0,96.6,78.4,175,175,175l3.3-5.8
			v-33.9L175,300.7z"/>
		<path class="st2" d="M300.8,175c0.1-69.4-56.2-125.7-125.6-125.8c-0.1,0-0.1,0-0.2,0l-3.3-8.7V10.1L175,0
			c96.6-0.1,174.9,78.1,175,174.7c0,0.1,0,0.2,0,0.3l-13.2,3.3H311L300.8,175z"/>
		<path class="st3" d="M300.8,175c0.1,69.4-56.1,125.7-125.5,125.7c-0.1,0-0.2,0-0.2,0V350c96.6,0.1,174.9-78.2,175-174.7
			c0-0.1,0-0.2,0-0.3H300.8z"/>
		<path class="st3" d="M175,49.2c-69.4,0-125.7,56.3-125.8,125.7c0,0,0,0,0,0H0C0,78.4,78.4,0,175,0V49.2z"/>
	</g>
</g>
</svg>
